<svg width="156" height="216" viewBox="0 0 156 216" fill="none" xmlns="http://www.w3.org/2000/svg">
<g clip-path="url(#clip0_28_39)">
<mask id="mask0_28_39" style="mask-type:luminance" maskUnits="userSpaceOnUse" x="2" y="0" width="152" height="216">
<path d="M154 0H2V215.925H154V0Z" fill="white"/>
</mask>
<g mask="url(#mask0_28_39)">
<path d="M47.4471 215.923H2.00164V128.085C1.93861 129.392 2.27411 130.686 2.96365 131.798C3.6532 132.909 4.66422 133.784 5.86268 134.308C8.55036 135.586 13.5102 136.558 20.6051 137.197C27.9515 137.858 35.3461 137.957 39.0999 137.957C44.3957 137.957 48.8307 137.76 49.6411 137.489L54.3594 161.738L47.4471 215.923ZM154 215.923H128.421L116.462 165.468C116.462 165.437 116.556 162.374 115.255 160.421L113.718 153.399C113.725 153.385 114.39 151.959 114.047 151.152C113.998 151.034 113.924 150.928 113.829 150.842C113.734 150.756 113.622 150.692 113.499 150.655C113.904 150.058 114.132 149.359 114.158 148.638C114.333 147.249 114.304 144.701 113.171 140.451L111.634 136.501L111.086 132.331L113.61 115.435L119.974 123.773L121.071 127.614C120.857 128.943 120.747 130.286 120.742 131.632C120.693 134.696 121.138 137.748 122.058 140.671L123.923 146.595L130.507 158.006C131.434 159.667 132.276 161.374 133.031 163.12C134.157 165.735 135.452 169.388 135.225 171.939C134.946 172.008 134.704 172.177 134.543 172.415C134.413 172.639 134.328 172.887 134.295 173.145C134.261 173.402 134.279 173.664 134.347 173.914L134.566 178.084L133.798 182.802C133.357 183.439 133.011 184.137 132.77 184.873C132.509 185.571 132.407 186.319 132.471 187.061C132.535 187.804 132.763 188.523 133.14 189.166L130.725 193.006L131.163 195.201C130.724 195.877 130.53 196.683 130.611 197.485C130.666 197.739 130.773 197.979 130.925 198.19C131.076 198.401 131.27 198.579 131.493 198.712C131.781 198.92 132.123 199.041 132.479 199.062C133.507 199.062 133.794 197.63 133.797 197.615L134.675 199.589L135.25 201.344C135.271 201.369 137.31 203.868 137.747 203.868C137.862 203.879 137.976 203.896 138.089 203.921C138.976 204.096 139.878 204.185 140.783 204.187C143.319 204.184 145.804 203.465 147.951 202.113C149.135 201.16 150.201 200.069 151.126 198.863C151.975 197.782 152.666 196.586 153.179 195.311C153.743 193.922 153.969 192.418 153.837 190.925L148.829 182.915L149.378 172.382C149.29 171.9 149.06 171.455 148.72 171.103C148.169 170.49 147.037 169.7 144.77 169.416L144.441 156.25C144.564 154.053 144.573 151.851 144.469 149.653C144.258 144.409 143.551 139.197 142.356 134.086L134.899 116.969L130.945 105.014L127.322 96.0171L126.883 77.143C126.602 74.3198 125.735 71.5863 124.338 69.1169C123.073 66.8681 121.266 64.9712 119.082 63.5988C116.133 61.8631 112.754 60.9938 109.334 61.0909C108.9 61.0909 108.454 61.1022 108.008 61.1242L101.425 58.9295L95.7194 55.1991L95.9396 52.4561C96.3572 51.8212 96.6762 51.1267 96.8857 50.3963C97.5845 48.0748 97.9311 45.6617 97.9141 43.2374L98.0242 33.8007L100.547 28.9708C100.554 28.9147 101.284 23.3185 100.01 21.7133C99.9256 21.5958 99.8175 21.4973 99.6928 21.4239C99.5681 21.3505 99.4294 21.3039 99.2857 21.2871L97.4745 21.8354V16.4672L96.9269 10.2125C96.8459 8.80121 96.5112 7.41605 95.9389 6.12347C95.4114 4.9075 94.6453 3.80976 93.6859 2.89528C92.4617 1.76216 90.9715 0.956007 89.3532 0.551377C87.8414 0.178092 86.2893 -0.0070335 84.7322 0.000204272H154V215.923ZM2.00164 127.911V0.000204272H84.2591C80.4242 0.123046 76.6174 0.701239 72.9189 1.72262C70.6598 2.31252 68.6402 3.59066 67.1401 5.37982C65.8234 6.86647 64.8274 8.6086 64.2142 10.4974C63.6009 12.3863 63.3837 14.3813 63.576 16.3578L64.8928 24.6964L62.3692 24.8065C62.3571 24.8065 61.1617 25.1616 61.0531 27.5496C60.7698 27.9347 60.6202 28.4019 60.6269 28.8799C60.6141 29.6683 60.9444 30.9525 62.588 32.5968L64.0142 34.7915C64.0213 34.805 64.7103 36.1567 65.8673 36.1567C66.547 36.1567 67.2523 35.6971 67.964 34.7915L68.952 44.9953L68.8419 50.8111L61.8202 58.9288L31.7564 63.8666L30.1107 72.4247C30.044 72.6559 30.0248 72.8982 30.054 73.1371C30.0833 73.376 30.1606 73.6064 30.2812 73.8147C30.4418 73.9969 30.6436 74.1381 30.8698 74.2266C31.096 74.315 31.3401 74.3482 31.5817 74.3232C31.7503 74.3225 31.9187 74.3114 32.086 74.2899L23.3098 90.6382V94.9176L18.9218 98.9776C17.9371 99.774 17.0283 100.66 16.2071 101.624C14.4947 103.523 13.279 105.817 12.6685 108.301L6.41101 116.094C5.59634 117.332 4.86549 118.623 4.22337 119.959C3.22331 122.034 2.02579 125.096 2.00164 127.911Z" fill="white"/>
<path d="M75.8691 81.4566H91.4951L75.8691 72.9326V81.4566Z" fill="#050505" stroke="white"/>
<path d="M75.8691 81.457V89.9803L91.4951 81.457H75.8691Z" fill="#050505" stroke="white"/>
</g>
</g>
<rect x="154" width="2" height="216" fill="white"/>
<rect width="2" height="216" fill="white"/>
<defs>
<clipPath id="clip0_28_39">
<rect width="152" height="216" fill="white" transform="translate(2)"/>
</clipPath>
</defs>
</svg>
