<svg xmlns="http://www.w3.org/2000/svg" width="128" height="85.332" viewBox="0 0 128 85.332">
  <g id="Group_8846" data-name="Group 8846" transform="translate(-1192.001 -1224.002)">
    <path id="Union_13" data-name="Union 13" d="M21.414,45.334H0V40H21.414a42.668,42.668,0,0,1,85.169,0H128v5.336H106.583a42.668,42.668,0,0,1-85.169,0ZM64,80a37.381,37.381,0,0,0,37.335-36.788V42.12a37.337,37.337,0,0,0-74.666,0v1.1A37.378,37.378,0,0,0,64,80Z" transform="translate(1192.001 1224.002)" fill="#ccc"/>
    <path id="Path_10954" data-name="Path 10954" d="M26.1-9.516,15.349,18.972H11.058L.308-9.516H4.273l8.951,24.565L22.175-9.516ZM38.81,19.258a12.185,12.185,0,0,1-5.048-1,8.412,8.412,0,0,1-3.495-2.779A7.121,7.121,0,0,1,28.96,11.37h3.965a5.221,5.221,0,0,0,1.655,3.372,5.941,5.941,0,0,0,4.23,1.369A6.182,6.182,0,0,0,43,14.783a4.311,4.311,0,0,0,1.533-3.413,3.874,3.874,0,0,0-.9-2.657A5.745,5.745,0,0,0,41.385,7.16a35.126,35.126,0,0,0-3.638-1.144,32.037,32.037,0,0,1-4.516-1.471,7.274,7.274,0,0,1-2.9-2.309A6.784,6.784,0,0,1,29.123-2a7.33,7.33,0,0,1,1.185-4.128A7.722,7.722,0,0,1,33.64-8.9a11.728,11.728,0,0,1,4.925-.981,10.316,10.316,0,0,1,6.56,2,7.4,7.4,0,0,1,2.882,5.313H43.919A4.409,4.409,0,0,0,42.2-5.449,6.1,6.1,0,0,0,38.2-6.7,5.8,5.8,0,0,0,34.4-5.49a4.117,4.117,0,0,0-1.471,3.372A3.654,3.654,0,0,0,33.8.416a5.665,5.665,0,0,0,2.166,1.492q1.287.511,3.617,1.165a33.974,33.974,0,0,1,4.537,1.533,7.567,7.567,0,0,1,2.943,2.33,6.774,6.774,0,0,1,1.226,4.271,7.5,7.5,0,0,1-1.1,3.924,8.112,8.112,0,0,1-3.27,2.984A10.79,10.79,0,0,1,38.81,19.258Z" transform="translate(1231.7 1261.982)" fill="#919192"/>
  </g>
</svg>
